<svg width="31" height="30" viewBox="0 0 31 30" fill="none" xmlns="http://www.w3.org/2000/svg">
  <g clip-path="url(#clip0_355_4)">
    <path
      d="M9.2473 18.1851C6.95698 20.4986 3.71294 21.2614 0.793457 20.4739C1.17708 21.9252 1.93226 23.297 3.0594 24.4355C6.47691 27.8875 12.0177 27.8875 15.4353 24.4355C17.144 22.7096 17.144 19.9112 15.4353 18.1852C13.7265 16.4591 10.9561 16.4591 9.2473 18.1851Z"
      fill="#39576A"/>
    <path
      d="M14.5859 15.3388C15.411 15.6549 16.1678 16.1467 16.8105 16.7958C17.4637 17.4556 17.942 18.2257 18.2489 19.0468L21.7149 15.5458L18.048 11.8418C16.7325 13.1706 15.5023 14.4132 14.5859 15.3388Z"
      fill="#39576A"/>
    <path
      d="M29.7341 3.74172C28.7215 2.71891 27.0798 2.71891 26.0672 3.74172C25.6856 4.12718 22.5347 7.30994 19.4229 10.4531L23.0897 14.1571L29.7341 7.44567C30.7467 6.42286 30.7467 4.76453 29.7341 3.74172Z"
      fill="#39576A"/>
  </g>
  <defs>
    <clipPath id="clip0_355_4">
      <rect width="29.7003" height="30" fill="white" transform="translate(0.793457)"/>
    </clipPath>
  </defs>
</svg>
