<?xml version="1.0" standalone="no"?>
<!DOCTYPE svg PUBLIC "-//W3C//DTD SVG 20010904//EN"
  "http://www.w3.org/TR/2001/REC-SVG-20010904/DTD/svg10.dtd">
<svg version="1.0" xmlns="http://www.w3.org/2000/svg"
     width="1280.000000pt" height="1280.000000pt" viewBox="0 0 1280.000000 1280.000000"
     preserveAspectRatio="xMidYMid meet">
  <g transform="translate(0.000000,1280.000000) scale(0.100000,-0.100000)"
     fill="#ffffff" stroke="none">
    <path d="M3041 11675 c-88 -151 -161 -281 -161 -289 0 -8 164 -295 365 -636
201 -342 362 -626 359 -631 -3 -5 -278 -9 -649 -9 l-643 0 -163 -277 c-89
-153 -162 -283 -162 -289 0 -6 73 -135 162 -287 l163 -277 982 0 c924 0 984
-1 998 -17 33 -40 1082 -1839 1082 -1858 1 -20 -3 -20 -1087 -23 -696 -1
-1095 1 -1106 8 -10 5 -238 383 -506 840 l-488 830 -335 -2 -336 -3 -163 -278
-164 -279 312 -531 c172 -293 317 -540 323 -550 8 -13 7 -20 -4 -27 -9 -6
-300 -10 -747 -10 l-731 0 -161 -274 c-89 -151 -161 -280 -161 -287 0 -16 300
-528 322 -551 17 -17 65 -18 753 -18 483 0 735 -3 735 -10 0 -5 -144 -255
-320 -555 l-321 -546 163 -277 163 -277 337 -3 336 -2 489 832 489 833 1107 3
c930 2 1107 0 1107 -12 0 -14 -1062 -1829 -1088 -1858 -14 -17 -74 -18 -997
-18 l-982 0 -149 -252 c-81 -139 -156 -267 -166 -284 l-18 -30 164 -280 164
-279 643 -3 c354 -1 647 -6 652 -11 5 -5 -148 -276 -357 -631 -201 -342 -366
-630 -366 -639 0 -9 72 -137 159 -286 l159 -270 335 -3 335 -2 368 625 c257
439 372 625 382 623 9 -2 158 -246 333 -543 l317 -540 334 -3 333 -2 160 272
c88 150 160 282 160 293 0 11 -217 390 -483 841 -265 452 -482 829 -482 838 0
23 1090 1876 1104 1876 11 0 1093 -1833 1103 -1868 3 -12 -167 -310 -483 -848
-268 -456 -487 -833 -487 -839 0 -5 73 -135 162 -287 l163 -278 333 0 332 0
319 545 c194 331 325 545 334 545 9 0 152 -233 381 -623 l365 -622 336 -3 335
-2 161 276 c89 151 162 280 162 286 0 6 -163 288 -361 626 -199 339 -362 623
-363 631 -1 14 65 17 646 21 l647 5 161 273 c88 150 160 279 160 286 0 13
-295 521 -320 551 -11 13 -144 15 -997 17 l-984 3 -549 935 c-302 514 -546
938 -544 942 3 4 502 8 1109 8 l1103 0 96 -162 c53 -90 273 -464 489 -833
l394 -670 338 0 338 0 158 270 c87 149 159 276 159 284 0 8 -142 256 -315 551
-173 295 -315 542 -315 548 0 9 178 12 733 12 572 0 737 3 749 13 23 18 330
546 326 561 -2 7 -75 135 -162 284 l-160 272 -727 0 c-400 0 -734 3 -743 6 -9
3 -16 11 -16 16 0 6 140 248 311 539 171 292 313 538 316 549 3 12 -52 115
-157 294 l-162 276 -334 0 -333 0 -55 -92 c-727 -1240 -920 -1565 -933 -1576
-24 -18 -2186 -18 -2201 1 -8 9 133 255 531 933 298 507 548 929 556 938 12
15 102 16 995 16 l982 0 162 275 c89 152 162 282 162 289 0 15 -292 519 -318
549 -14 16 -58 17 -653 17 -417 0 -640 3 -644 10 -3 6 157 288 357 628 199
339 362 626 363 637 0 11 -72 143 -160 293 l-160 272 -334 -2 -334 -3 -366
-624 c-202 -344 -372 -626 -378 -628 -6 -2 -151 236 -323 529 -172 293 -320
541 -328 551 -14 16 -43 17 -342 17 l-327 0 -163 -277 c-90 -153 -163 -283
-163 -289 0 -6 215 -377 478 -825 263 -448 483 -825 488 -839 8 -22 -53 -131
-539 -958 -351 -597 -553 -932 -562 -930 -15 3 -1092 1830 -1100 1864 -3 15
143 272 482 849 267 455 486 832 486 838 0 11 -229 408 -296 515 l-34 52 -329
0 -329 0 -312 -532 c-172 -293 -319 -541 -328 -550 -8 -10 -18 -15 -23 -13 -4
3 -173 286 -375 630 l-367 625 -332 0 -332 0 -162 -275z"/>
  </g>
</svg>
