<svg width="31" height="30" viewBox="0 0 31 30" fill="none" xmlns="http://www.w3.org/2000/svg">
  <path
    d="M11.4435 14.7363C9.76134 14.7363 8.3877 16.1133 8.3877 17.8125C8.3877 19.5117 9.75552 20.8887 11.4435 20.8887C13.1256 20.8887 14.4993 19.5117 14.4993 17.8125C14.4993 16.1133 13.1256 14.7363 11.4435 14.7363ZM11.4435 19.4473C10.5471 19.4473 9.81373 18.7148 9.81373 17.8066C9.81373 16.8984 10.5413 16.166 11.4435 16.166C12.3398 16.166 13.0732 16.8984 13.0732 17.8066C13.0732 18.7148 12.3398 19.4473 11.4435 19.4473Z"
    fill="#39576A"/>
  <path
    d="M23.0671 17.8066C23.0671 16.1133 21.6993 14.7305 20.0114 14.7305C18.3292 14.7305 16.9556 16.1074 16.9556 17.8066C16.9556 19.5059 18.3234 20.8828 20.0114 20.8828C21.6993 20.8828 23.0671 19.5 23.0671 17.8066ZM20.0114 19.4473C19.115 19.4473 18.3816 18.7148 18.3816 17.8066C18.3816 16.8984 19.1092 16.166 20.0114 16.166C20.9077 16.166 21.6411 16.8984 21.6411 17.8066C21.6411 18.7148 20.9135 19.4473 20.0114 19.4473Z"
    fill="#39576A"/>
  <path
    d="M28.0553 10.1719C27.5664 7.24219 25.1625 5.07422 22.1999 4.89258L22.0776 4.86914C22.0369 4.86328 21.9961 4.85742 21.9554 4.85742H9.64496C6.54261 4.85742 3.91754 7.08984 3.40533 10.1543L1.5253 20.2969C1.46709 20.5723 1.43799 20.8477 1.43799 21.123C1.43799 23.3379 3.2249 25.1367 5.42506 25.1367C6.75214 25.1367 7.99192 24.4746 8.71949 23.3848L9.62749 22.1191C9.86032 21.7969 9.78465 21.3516 9.46452 21.1172C9.14439 20.8828 8.70203 20.959 8.46921 21.2813L7.54956 22.5645C7.07228 23.2793 6.27486 23.707 5.42506 23.707C4.01067 23.707 2.86402 22.5469 2.86402 21.1289C2.86402 20.9531 2.88148 20.7715 2.92223 20.5781L4.80226 10.4121C5.19806 8.02734 7.23525 6.29883 9.63913 6.29883H21.8972L21.9962 6.31641C22.0253 6.32227 22.0485 6.32227 22.0776 6.32812C24.3477 6.45117 26.2684 8.17383 26.6468 10.4238L28.5326 20.5898C28.5675 20.7656 28.585 20.9473 28.585 21.123C28.585 22.5469 27.4325 23.7012 26.024 23.7012C25.1683 23.7012 24.3768 23.2734 23.882 22.541L22.9042 21.1816C22.6713 20.8594 22.229 20.7891 21.9088 21.0176C21.5887 21.252 21.5189 21.6973 21.7459 22.0195L22.7063 23.3613C23.4513 24.4688 24.6852 25.1309 26.0123 25.1309C28.2125 25.1309 29.9994 23.332 29.9994 21.1172C29.9994 20.8418 29.9703 20.5605 29.9179 20.3027L28.0553 10.1719Z"
    fill="#39576A"/>
  <path
    d="M19.4232 11.625C19.9569 11.625 20.3895 11.1895 20.3895 10.6523C20.3895 10.1152 19.9569 9.67969 19.4232 9.67969C18.8896 9.67969 18.457 10.1152 18.457 10.6523C18.457 11.1895 18.8896 11.625 19.4232 11.625Z"
    fill="#39576A"/>
  <path
    d="M23.3754 11.625C23.909 11.625 24.3416 11.1895 24.3416 10.6523C24.3416 10.1152 23.909 9.67969 23.3754 9.67969C22.8418 9.67969 22.4092 10.1152 22.4092 10.6523C22.4092 11.1895 22.8418 11.625 23.3754 11.625Z"
    fill="#39576A"/>
  <path
    d="M10.122 7.76953C9.72621 7.76953 9.40608 8.0918 9.40608 8.49023V9.78516H8.11974C7.72394 9.78516 7.40381 10.1074 7.40381 10.5059C7.40381 10.9043 7.72394 11.2266 8.11974 11.2266H9.40608V12.5215C9.40608 12.9199 9.72621 13.2422 10.122 13.2422C10.5178 13.2422 10.8379 12.9199 10.8379 12.5215V11.2266H12.1243C12.5201 11.2266 12.8402 10.9043 12.8402 10.5059C12.8402 10.1074 12.5201 9.78516 12.1243 9.78516H10.8379V8.49023C10.8379 8.0918 10.5178 7.76953 10.122 7.76953Z"
    fill="#39576A"/>
  <path
    d="M21.3969 13.6113C21.9305 13.6113 22.3631 13.1759 22.3631 12.6387C22.3631 12.1015 21.9305 11.666 21.3969 11.666C20.8633 11.666 20.4307 12.1015 20.4307 12.6387C20.4307 13.1759 20.8633 13.6113 21.3969 13.6113Z"
    fill="#39576A"/>
  <path
    d="M21.3969 9.63281C21.9305 9.63281 22.3631 9.19734 22.3631 8.66016C22.3631 8.12297 21.9305 7.6875 21.3969 7.6875C20.8633 7.6875 20.4307 8.12297 20.4307 8.66016C20.4307 9.19734 20.8633 9.63281 21.3969 9.63281Z"
    fill="#39576A"/>
</svg>
