<svg width="32" height="30" viewBox="0 0 32 30" fill="none" xmlns="http://www.w3.org/2000/svg">
  <g clip-path="url(#clip0_355_62)">
    <path
      d="M30.7642 13.7461L26.1389 9.37433V4.3242C26.1389 3.41106 25.356 2.67104 24.3885 2.67104C23.4232 2.67104 22.6403 3.41106 22.6403 4.3242V6.06761L19.1964 2.81236C17.4937 1.20386 14.5333 1.20672 12.8344 2.81527L1.26936 13.7461C0.586646 14.3927 0.586646 15.4389 1.26936 16.0844C1.95238 16.7308 3.0614 16.7308 3.74417 16.0844L15.3081 5.15331C15.6848 4.79911 16.3488 4.79911 16.7236 5.15226L28.2895 16.0844C28.6325 16.4077 29.0796 16.5684 29.5266 16.5684C29.9745 16.5684 30.4224 16.4075 30.7643 16.0844C31.4473 15.4389 31.4473 14.3927 30.7642 13.7461Z"
      fill="#39576A"/>
    <path
      d="M16.6242 8.29176C16.2882 7.97436 15.7442 7.97436 15.4092 8.29176L5.23652 17.9039C5.07592 18.0556 4.98486 18.2628 4.98486 18.479V25.4898C4.98486 27.1349 6.39612 28.4687 8.1366 28.4687H13.1731V21.0964H18.8592V28.4687H23.8958C25.6362 28.4687 27.0474 27.1349 27.0474 25.4898V18.479C27.0474 18.2628 26.9572 18.0556 26.7958 17.9039L16.6242 8.29176Z"
      fill="#39576A"/>
  </g>
  <defs>
    <clipPath id="clip0_355_62">
      <rect width="30.5192" height="28.8462" fill="white" transform="translate(0.757324 0.615234)"/>
    </clipPath>
  </defs>
</svg>
