<svg width="31" height="30" viewBox="0 0 31 30" fill="none" xmlns="http://www.w3.org/2000/svg">
  <path
    d="M14.8369 15.25H9.31845C8.61604 15.25 8.26483 15.25 7.99655 15.3863C7.76056 15.5061 7.56869 15.6972 7.44844 15.9325C7.31175 16.1999 7.31175 16.5499 7.31175 17.25V20.25M14.8369 15.25H20.3553C21.0578 15.25 21.409 15.25 21.6773 15.3863C21.9133 15.5061 22.1051 15.6972 22.2253 15.9325C22.362 16.1999 22.362 16.5499 22.362 17.25V20.25M14.8369 15.25V10.25M13.7081 10.25H15.9657C16.6681 10.25 17.0193 10.25 17.2876 10.1138C17.5236 9.99391 17.7154 9.80269 17.8357 9.56749C17.9724 9.3001 17.9724 8.95006 17.9724 8.25V6C17.9724 5.29994 17.9724 4.9499 17.8357 4.68251C17.7154 4.44731 17.5236 4.25609 17.2876 4.13624C17.0193 4 16.6681 4 15.9657 4H13.7081C13.0057 4 12.6545 4 12.3862 4.13624C12.1502 4.25609 11.9584 4.44731 11.8381 4.68251C11.7014 4.9499 11.7014 5.29994 11.7014 6V8.25C11.7014 8.95006 11.7014 9.3001 11.8381 9.56749C11.9584 9.80269 12.1502 9.99391 12.3862 10.1138C12.6545 10.25 13.0057 10.25 13.7081 10.25ZM6.18298 26.5H8.44052C9.14293 26.5 9.49414 26.5 9.76242 26.3638C9.99841 26.2439 10.1903 26.0528 10.3105 25.8175C10.4472 25.5501 10.4472 25.2001 10.4472 24.5V22.25C10.4472 21.5499 10.4472 21.1999 10.3105 20.9325C10.1903 20.6972 9.99841 20.5061 9.76242 20.3862C9.49414 20.25 9.14293 20.25 8.44052 20.25H6.18298C5.48057 20.25 5.12935 20.25 4.86107 20.3862C4.62508 20.5061 4.43322 20.6972 4.31296 20.9325C4.17627 21.1999 4.17627 21.5499 4.17627 22.25V24.5C4.17627 25.2001 4.17627 25.5501 4.31296 25.8175C4.43322 26.0528 4.62508 26.2439 4.86107 26.3638C5.12935 26.5 5.48057 26.5 6.18298 26.5ZM21.2333 26.5H23.4908C24.1933 26.5 24.5445 26.5 24.8127 26.3638C25.0488 26.2439 25.2405 26.0528 25.3608 25.8175C25.4975 25.5501 25.4975 25.2001 25.4975 24.5V22.25C25.4975 21.5499 25.4975 21.1999 25.3608 20.9325C25.2405 20.6972 25.0488 20.5061 24.8127 20.3862C24.5445 20.25 24.1933 20.25 23.4908 20.25H21.2333C20.5308 20.25 20.1796 20.25 19.9114 20.3862C19.6753 20.5061 19.4835 20.6972 19.3633 20.9325C19.2266 21.1999 19.2266 21.5499 19.2266 22.25V24.5C19.2266 25.2001 19.2266 25.5501 19.3633 25.8175C19.4835 26.0528 19.6753 26.2439 19.9114 26.3638C20.1796 26.5 20.5308 26.5 21.2333 26.5Z"
    stroke="#39576A" stroke-width="2" stroke-linecap="round" stroke-linejoin="round"/>
</svg>
