<svg width="31" height="30" viewBox="0 0 31 30" fill="none" xmlns="http://www.w3.org/2000/svg">
  <path
    d="M4.81201 0C2.53251 0 0.664551 1.8681 0.664551 4.1476C0.664551 6.42711 2.53251 8.29506 4.81201 8.29506C5.20001 8.29506 5.57562 8.23968 5.93259 8.13862L6.94096 9.83165C4.70023 11.4852 3.24291 14.1432 3.24291 17.133C3.24291 22.131 7.3147 26.2028 12.3127 26.2028C14.9054 26.2028 17.2485 25.1067 18.9036 23.3543L20.4381 24.5124C20.293 24.9334 20.213 25.384 20.213 25.8524C20.213 28.1319 22.081 30 24.3605 30C26.64 30 28.5081 28.1319 28.5081 25.8524C28.5081 23.5729 26.64 21.7049 24.3605 21.7049C23.2237 21.7049 22.1895 22.1695 21.438 22.9179L20.0447 21.8664C20.8926 20.4872 21.3824 18.8659 21.3824 17.133C21.3824 15.6746 21.0351 14.2955 20.42 13.073L23.8678 10.5468C24.5737 11.1024 25.4615 11.4359 26.4232 11.4359C28.7027 11.4359 30.5707 9.56794 30.5707 7.28844C30.5707 5.00894 28.7027 3.14084 26.4232 3.14084C24.1437 3.14084 22.2756 5.00894 22.2756 7.28844C22.2756 7.93141 22.4243 8.54155 22.6888 9.08635L19.4068 11.491C17.7431 9.40399 15.1806 8.06318 12.3127 8.06318C10.9739 8.06318 9.70166 8.35563 8.5562 8.87952L7.57508 7.23219C8.42317 6.47117 8.95947 5.36864 8.95947 4.1476C8.95947 1.8681 7.09151 0 4.81201 0ZM4.81201 1.87495C6.07821 1.87495 7.08451 2.8814 7.08451 4.1476C7.08451 5.41381 6.07821 6.42011 4.81201 6.42011C3.54581 6.42011 2.5395 5.41381 2.5395 4.1476C2.5395 2.8814 3.54581 1.87495 4.81201 1.87495ZM26.4232 5.01579C27.6894 5.01579 28.6957 6.02224 28.6957 7.28844C28.6957 8.55464 27.6894 9.56095 26.4232 9.56095C25.157 9.56095 24.1505 8.55464 24.1505 7.28844C24.1505 6.02224 25.157 5.01579 26.4232 5.01579ZM12.3127 9.93814C16.2974 9.93814 19.5074 13.1483 19.5074 17.133C19.5074 21.1177 16.2974 24.3278 12.3127 24.3278C8.328 24.3278 5.11786 21.1177 5.11786 17.133C5.11786 13.1483 8.328 9.93814 12.3127 9.93814ZM12.2504 11.8317C10.3422 11.8017 8.82587 14.0219 9.59256 15.7815C9.80965 16.3457 10.2123 16.833 10.7139 17.168C8.98694 17.9263 7.96113 19.8279 7.98859 21.6734C7.98416 22.0338 7.95024 22.405 8.29605 22.3943C10.8703 22.3419 14.0088 22.4056 16.5834 22.3886C16.9202 20.34 15.8925 18.036 13.9501 17.1743C15.3116 16.2733 15.6994 14.1464 14.576 12.9061C14.0143 12.2241 13.1367 11.8075 12.2504 11.8317ZM12.2995 13.6057C12.3393 13.6052 12.3797 13.607 12.4202 13.6113C13.3972 13.656 13.8585 15.154 12.9829 15.6789C12.2921 16.1698 11.1115 15.661 11.1918 14.7503C11.2007 14.1499 11.7021 13.614 12.2995 13.6057ZM12.3748 18.6148C13.4943 18.6325 14.4368 19.5738 14.7185 20.6046C13.1226 20.6029 11.5267 20.609 9.93078 20.6C10.2249 19.5675 11.1407 18.626 12.266 18.616C12.3024 18.6146 12.3387 18.6142 12.3748 18.6148ZM24.3605 23.5799C25.6267 23.5799 26.6331 24.5862 26.6331 25.8524C26.6331 27.1186 25.6267 28.125 24.3605 28.125C23.0943 28.125 22.088 27.1186 22.088 25.8524C22.088 24.5862 23.0943 23.5799 24.3605 23.5799Z"
    fill="#39576A"/>
</svg>
