<svg width="163" height="137" viewBox="0 0 163 137" fill="none" xmlns="http://www.w3.org/2000/svg">
  <path
    d="M56.6826 0.723271C56.0588 1.01153 55.459 1.29979 54.8591 1.54C53.6115 2.02043 52.3878 2.62097 51.3321 3.38966C50.3244 4.1103 49.2207 4.63878 48.213 5.31138C46.5574 6.44039 45.1418 7.76157 43.5823 8.98667C41.9267 10.3078 40.4631 11.7732 39.0475 13.3346C37.7999 14.7038 36.5282 16.049 35.4725 17.5864C34.8007 18.5712 34.0809 19.5321 33.4091 20.517C33.1931 20.8293 32.9052 20.8293 32.5933 20.8293C29.0423 20.8293 25.4913 20.8293 21.9403 20.8293C21.1485 20.8293 21.1485 20.8293 21.1485 21.646C21.1485 27.6754 21.1485 33.7048 21.1485 39.7342C21.1485 55.3241 21.1245 70.8901 21.1245 86.48C21.1245 96.0886 21.1485 105.697 21.1485 115.306C21.1485 116.147 21.1485 116.147 21.9882 116.147C24.9154 116.147 27.8426 116.147 30.7458 116.147C30.9378 116.147 31.2017 116.075 31.2977 116.267C31.3936 116.459 31.2257 116.675 31.0817 116.843C30.8898 117.059 30.6738 117.276 30.4579 117.468C29.1862 118.693 28.2265 120.134 27.3867 121.648C26.7629 122.777 26.379 124.074 26.403 125.419C26.403 126.692 26.379 127.965 26.403 129.238C26.451 131.016 26.9789 132.649 27.9866 134.139C28.4185 134.787 28.9703 135.292 29.4982 135.868C29.6181 135.988 29.8581 136.084 29.7621 136.277C29.6661 136.445 29.4502 136.373 29.2822 136.373C29.1383 136.397 28.9703 136.373 28.8024 136.373C19.5649 136.373 10.3275 136.373 1.09004 136.373C0.154297 136.373 0.154297 136.373 0.154297 135.46C0.154297 90.7799 0.154297 46.0999 0.154297 1.44392C0.154297 0.579142 0.154296 0.555121 1.04205 0.555121C19.349 0.555121 37.6799 0.555121 55.9868 0.555121C56.1788 0.555121 56.4427 0.459035 56.6826 0.723271Z"
    fill="#39586A"/>
  <path
    d="M63.9288 116.267C64.2647 116.267 64.5286 116.267 64.7686 116.267C96.7997 116.267 128.807 116.267 160.838 116.267C161.03 116.267 161.222 116.291 161.438 116.267C161.918 116.219 162.11 116.411 162.11 116.892C162.11 123.137 162.11 129.383 162.11 135.628C162.11 136.133 161.918 136.301 161.438 136.253C161.294 136.229 161.174 136.253 161.03 136.253C120.289 136.253 79.5725 136.229 38.8318 136.277C34.489 136.277 30.3141 133.154 29.7143 128.35C29.4024 125.732 30.0502 123.354 31.7537 121.312C34.1531 118.453 36.7443 115.763 39.2397 113C43.8704 107.884 48.5011 102.791 53.1318 97.6985C56.9227 93.5188 60.7137 89.3631 64.5047 85.2074C65.2724 84.3666 66.0402 83.5259 66.784 82.6851C67.0719 82.3728 67.3359 82.2527 67.7677 82.4209C70.335 83.3577 72.7824 84.5348 74.7978 86.3604C76.0934 87.5134 76.9092 89.0748 77.605 90.6602C78.4928 92.678 78.7567 94.84 78.9966 97.0259C79.0446 97.4343 79.1406 97.8427 79.1406 98.251C79.1646 99.4761 78.7807 100.461 77.8689 101.398C73.2382 106.226 68.6795 111.127 64.0968 116.003C64.0728 116.051 64.0488 116.099 63.9288 116.267Z"
    fill="#39586A"/>
  <path
    d="M117.41 37.4527C117.458 43.9625 115.874 50.2561 113.139 56.2855C110.212 62.7954 106.325 68.7046 102.006 74.3497C101.718 74.734 101.55 74.8061 101.262 74.3497C99.7028 71.8274 97.5433 69.8096 95.4799 67.6957C93.4885 65.6539 91.2811 63.8763 88.8578 62.363C88.066 61.8585 87.2502 61.3781 86.4104 60.9937C85.7386 60.6815 85.7386 60.6574 86.1945 60.0329C88.6178 56.6939 90.9212 53.2828 92.7207 49.5595C93.9443 47.0132 95.048 44.4189 95.336 41.6084C95.9838 35.627 95.0001 30.0781 90.7532 25.49C88.6898 23.256 86.0745 21.8147 83.1713 20.9259C80.1002 19.965 76.9571 19.6527 73.7659 19.8449C69.4951 20.1091 65.6562 21.7186 62.1772 24.1928C56.0349 28.5647 51.74 34.426 48.7409 41.2721C48.141 42.6173 47.6132 43.9865 47.1813 45.4038C47.0374 45.8602 46.8694 45.9563 46.4375 45.692C41.3269 42.5452 36.1924 39.4224 31.0818 36.2996C30.7459 36.0834 30.6259 35.8913 30.7699 35.4829C33.1452 27.82 36.8402 20.9019 42.4066 15.0406C49.3167 7.76209 57.7624 3.39018 67.5517 1.46846C71.3186 0.723791 75.1336 0.435533 78.9485 0.55564C85.5227 0.747812 91.8809 2.02095 97.7833 5.02364C106.373 9.39555 112.395 16.0495 115.538 25.2257C116.522 28.1323 117.074 31.135 117.29 34.2098C117.362 35.2427 117.362 36.2756 117.41 37.4527Z"
    fill="#39586A"/>
  <path
    d="M126.216 59.5515C127.103 58.4225 127.991 57.3175 128.855 56.1885C135.549 47.6849 142.267 39.1573 148.961 30.6537C149.225 30.3174 149.489 30.1973 149.897 30.1973C153.712 30.1973 157.503 30.2213 161.318 30.1973C161.894 30.1973 162.062 30.3894 162.062 30.9419C162.038 33.4882 162.038 36.0585 162.062 38.6048C162.062 39.0612 161.918 39.4455 161.654 39.8059C154.264 49.2463 146.874 58.6868 139.46 68.1272C139.172 68.4875 139.148 68.7278 139.412 69.0881C144.115 75.8862 148.817 82.6842 153.52 89.4823C156.231 93.3978 158.943 97.3374 161.654 101.253C161.918 101.637 162.062 102.046 162.062 102.526C162.062 105.697 162.062 108.892 162.062 112.063C162.062 112.783 161.99 112.855 161.294 112.855C157.815 112.855 154.312 112.855 150.833 112.855C150.353 112.855 150.041 112.687 149.753 112.303C143.419 103.127 137.061 93.9744 130.702 84.7981C129.335 82.8284 127.967 80.8586 126.6 78.8888C126.48 78.6967 126.384 78.4805 126.144 78.3604C126.024 78.6006 126.072 78.8408 126.072 79.057C126.072 90.0108 126.072 100.941 126.072 111.894C126.072 112.855 126.072 112.855 125.136 112.855C120.217 112.855 115.299 112.855 110.38 112.855C109.468 112.855 109.444 112.831 109.444 111.942C109.444 98.3703 109.444 84.7981 109.444 71.226C109.444 70.6975 109.588 70.2892 109.876 69.8568C112.707 65.629 115.227 61.2571 117.194 56.5729C118.85 52.6333 120.025 48.5497 120.505 44.2739C120.961 40.2383 120.985 36.2026 120.649 32.167C120.601 31.6866 120.577 31.1821 120.529 30.7017C120.505 30.3654 120.625 30.2213 120.961 30.2213C122.521 30.2213 124.056 30.2213 125.616 30.2213C125.928 30.2213 126.096 30.3654 126.072 30.6777C126.072 30.8939 126.072 31.1101 126.072 31.3263C126.072 40.4785 126.072 49.6307 126.072 58.7829C126.072 59.0231 126.072 59.2633 126.072 59.4795C126.12 59.5275 126.168 59.5275 126.216 59.5515Z"
    fill="#39586A"/>
  <path
    d="M87.682 112.808C83.4352 112.808 79.2124 112.808 74.9655 112.808C74.7736 112.808 74.5097 112.904 74.4377 112.712C74.3657 112.495 74.6056 112.375 74.7496 112.255C76.2132 111.078 77.5328 109.781 78.7325 108.364C80.0521 106.802 80.9879 104.977 81.8756 103.127C82.3315 102.142 82.4995 101.181 82.4995 100.124C82.5475 97.2897 82.4515 94.4552 81.8756 91.6927C81.3238 89.0023 80.0521 86.6722 78.2046 84.6304C75.7813 81.964 72.8062 80.1624 69.4231 79.0334C66.7118 78.1205 63.9046 77.496 61.0254 77.3519C58.4821 77.2318 56.1308 76.6793 54.0194 75.1659C48.9808 71.5627 48.3089 64.1881 52.6277 59.7441C54.3313 57.9905 56.3467 56.9336 58.794 56.6213C63.3528 56.0448 67.3597 54.2912 70.6467 51.0003C73.454 48.1657 75.0855 44.7787 75.4454 40.7671C75.7573 37.2119 75.3734 33.7769 73.8139 30.558C72.8061 28.4441 71.3426 26.7145 69.4711 25.2973C69.3271 25.1772 69.0632 25.1051 69.0872 24.8889C69.1112 24.6727 69.3751 24.6487 69.5431 24.5766C71.5585 23.8319 73.6219 23.1834 75.7813 23.3035C79.9322 23.5437 83.7951 24.6727 87.1782 27.195C88.5938 28.2519 89.4095 29.7412 90.1773 31.2786C91.281 33.4646 91.8329 35.8187 92.0248 38.2449C92.1448 39.7582 91.7369 41.1995 91.353 42.6408C90.7292 44.9228 89.7455 47.0607 88.6658 49.1506C86.8902 52.5376 84.7069 55.6845 82.4755 58.7832C81.8037 59.7201 81.0119 60.5128 80.2441 61.3535C80.1721 61.4496 80.1001 61.5457 80.0281 61.6178C79.7402 61.9541 79.8362 62.1222 80.2441 62.2664C82.2835 63.011 84.227 63.9238 86.0985 65.0288C95.6478 70.6979 101.526 78.9373 103.278 89.9872C103.95 94.1909 103.878 98.4427 103.422 102.671C103.062 105.913 102.366 109.06 101.334 112.135C101.166 112.663 100.902 112.832 100.375 112.832C96.1277 112.784 91.9049 112.808 87.682 112.808Z"
    fill="#39586A"/>
</svg>
