<svg width="162" height="136" viewBox="0 0 162 136" fill="none" xmlns="http://www.w3.org/2000/svg">
  <path
    d="M56.5283 0.193974C55.9045 0.482232 55.3047 0.77049 54.7048 1.01071C53.4572 1.49114 52.2335 2.09167 51.1778 2.86036C50.1701 3.58101 49.0664 4.10948 48.0587 4.78208C46.4031 5.91109 44.9875 7.23227 43.428 8.45737C41.7724 9.77855 40.3088 11.2439 38.8932 12.8053C37.6456 14.1745 36.3739 15.5197 35.3182 17.0571C34.6464 18.0419 33.9266 19.0028 33.2548 19.9877C33.0388 20.3 32.7509 20.3 32.439 20.3C28.888 20.3 25.337 20.3 21.786 20.3C20.9942 20.3 20.9942 20.3 20.9942 21.1167C20.9942 27.1461 20.9942 33.1755 20.9942 39.2049C20.9942 54.7948 20.9702 70.3608 20.9702 85.9507C20.9702 95.5593 20.9942 105.168 20.9942 114.777C20.9942 115.617 20.9942 115.617 21.8339 115.617C24.7611 115.617 27.6883 115.617 30.5915 115.617C30.7835 115.617 31.0474 115.545 31.1434 115.737C31.2393 115.93 31.0714 116.146 30.9274 116.314C30.7355 116.53 30.5195 116.746 30.3036 116.938C29.032 118.164 28.0722 119.605 27.2324 121.118C26.6086 122.247 26.2247 123.544 26.2487 124.89C26.2487 126.163 26.2247 127.436 26.2487 128.709C26.2967 130.487 26.8246 132.12 27.8323 133.609C28.2642 134.258 28.816 134.762 29.3439 135.339C29.4638 135.459 29.7038 135.555 29.6078 135.747C29.5118 135.915 29.2959 135.843 29.1279 135.843C28.984 135.867 28.816 135.843 28.6481 135.843C19.4106 135.843 10.1732 135.843 0.935741 135.843C3.43228e-07 135.843 0 135.843 0 134.931C0 90.2506 0 45.5706 0 0.914619C0 0.0498452 -7.4366e-07 0.0258237 0.887753 0.0258237C19.1947 0.0258237 37.5256 0.0258237 55.8325 0.0258237C56.0245 0.0258237 56.2884 -0.0702623 56.5283 0.193974Z"
    fill="#F29708"/>
  <path
    d="M63.7745 115.738C64.1104 115.738 64.3743 115.738 64.6143 115.738C96.6454 115.738 128.653 115.738 160.684 115.738C160.876 115.738 161.068 115.762 161.283 115.738C161.763 115.69 161.955 115.882 161.955 116.362C161.955 122.608 161.955 128.854 161.955 135.099C161.955 135.604 161.763 135.772 161.283 135.724C161.14 135.7 161.02 135.724 160.876 135.724C120.135 135.724 79.4182 135.7 38.6775 135.748C34.3347 135.748 30.1598 132.625 29.56 127.821C29.2481 125.202 29.8959 122.824 31.5994 120.782C33.9988 117.924 36.59 115.233 39.0854 112.471C43.7161 107.354 48.3468 102.262 52.9775 97.1693C56.7685 92.9895 60.5594 88.8338 64.3504 84.6781C65.1181 83.8373 65.8859 82.9966 66.6297 82.1558C66.9176 81.8435 67.1816 81.7234 67.6134 81.8916C70.1807 82.8284 72.6281 84.0055 74.6435 85.8311C75.9391 86.9841 76.7549 88.5455 77.4507 90.1309C78.3385 92.1488 78.6024 94.3107 78.8423 96.4966C78.8903 96.905 78.9863 97.3134 78.9863 97.7217C79.0103 98.9468 78.6264 99.9317 77.7146 100.869C73.0839 105.697 68.5252 110.597 63.9425 115.474C63.9185 115.522 63.8945 115.57 63.7745 115.738Z"
    fill="#39586A"/>
  <path
    d="M117.256 36.9234C117.304 43.4332 115.72 49.7268 112.985 55.7562C110.058 62.2661 106.171 68.1753 101.852 73.8204C101.564 74.2047 101.396 74.2768 101.108 73.8204C99.5485 71.2981 97.389 69.2803 95.3256 67.1664C93.3342 65.1246 91.1268 63.347 88.7035 61.8337C87.9117 61.3292 87.0959 60.8488 86.2561 60.4644C85.5843 60.1522 85.5843 60.1281 86.0402 59.5036C88.4635 56.1646 90.7669 52.7535 92.5664 49.0302C93.79 46.4839 94.8937 43.8896 95.1817 41.0791C95.8295 35.0977 94.8458 29.5488 90.5989 24.9607C88.5355 22.7267 85.9202 21.2854 83.017 20.3966C79.9459 19.4357 76.8028 19.1234 73.6116 19.3156C69.3408 19.5798 65.5019 21.1893 62.0229 23.6635C55.8806 28.0354 51.5858 33.8967 48.5866 40.7428C47.9868 42.088 47.4589 43.4572 47.027 44.8745C46.8831 45.3309 46.7151 45.427 46.2832 45.1627C41.1726 42.0159 36.0381 38.8931 30.9275 35.7703C30.5916 35.5541 30.4716 35.362 30.6156 34.9536C32.9909 27.2907 36.6859 20.3726 42.2523 14.5113C49.1624 7.23279 57.6081 2.86088 67.3974 0.939161C71.1643 0.194494 74.9793 -0.0937641 78.7942 0.0263435C85.3684 0.218515 91.7266 1.49166 97.629 4.49434C106.219 8.86626 112.241 15.5202 115.384 24.6964C116.368 27.603 116.92 30.6057 117.136 33.6805C117.208 34.7134 117.208 35.7463 117.256 36.9234Z"
    fill="#39586A"/>
  <path
    d="M126.061 59.0222C126.949 57.8932 127.837 56.7882 128.701 55.6592C135.395 47.1556 142.113 38.628 148.807 30.1244C149.071 29.7881 149.335 29.668 149.743 29.668C153.558 29.668 157.349 29.692 161.164 29.668C161.739 29.668 161.907 29.8601 161.907 30.4126C161.883 32.9589 161.883 35.5292 161.907 38.0755C161.907 38.5319 161.763 38.9162 161.5 39.2766C154.11 48.717 146.72 58.1575 139.306 67.5979C139.018 67.9582 138.994 68.1985 139.258 68.5588C143.96 75.3569 148.663 82.155 153.366 88.953C156.077 92.8685 158.788 96.8081 161.5 100.724C161.763 101.108 161.907 101.516 161.907 101.997C161.907 105.168 161.907 108.362 161.907 111.533C161.907 112.254 161.835 112.326 161.14 112.326C157.661 112.326 154.158 112.326 150.679 112.326C150.199 112.326 149.887 112.158 149.599 111.773C143.265 102.597 136.906 93.4451 130.548 84.2688C129.181 82.2991 127.813 80.3293 126.445 78.3596C126.325 78.1674 126.229 77.9512 125.989 77.8311C125.869 78.0713 125.917 78.3115 125.917 78.5277C125.917 89.4815 125.917 100.411 125.917 111.365C125.917 112.326 125.917 112.326 124.982 112.326C120.063 112.326 115.144 112.326 110.226 112.326C109.314 112.326 109.29 112.302 109.29 111.413C109.29 97.841 109.29 84.2688 109.29 70.6967C109.29 70.1682 109.434 69.7599 109.722 69.3275C112.553 65.0997 115.072 60.7278 117.04 56.0436C118.695 52.1041 119.871 48.0204 120.351 43.7446C120.807 39.709 120.831 35.6733 120.495 31.6377C120.447 31.1573 120.423 30.6529 120.375 30.1724C120.351 29.8361 120.471 29.692 120.807 29.692C122.366 29.692 123.902 29.692 125.462 29.692C125.773 29.692 125.941 29.8361 125.917 30.1484C125.917 30.3646 125.917 30.5808 125.917 30.797C125.917 39.9492 125.917 49.1014 125.917 58.2536C125.917 58.4938 125.917 58.734 125.917 58.9502C125.965 58.9982 126.013 58.9982 126.061 59.0222Z"
    fill="#6D1417"/>
  <path
    d="M87.5277 112.278C83.2809 112.278 79.0581 112.278 74.8113 112.278C74.6193 112.278 74.3554 112.374 74.2834 112.182C74.2114 111.966 74.4514 111.846 74.5953 111.726C76.0589 110.549 77.3785 109.252 78.5782 107.834C79.8978 106.273 80.8336 104.447 81.7213 102.598C82.1772 101.613 82.3452 100.652 82.3452 99.5949C82.3932 96.7604 82.2972 93.9259 81.7213 91.1634C81.1695 88.473 79.8978 86.1429 78.0504 84.1011C75.627 81.4347 72.6519 79.6331 69.2688 78.5041C66.5575 77.5912 63.7503 76.9667 60.8711 76.8226C58.3278 76.7025 55.9765 76.15 53.8651 74.6366C48.8265 71.0334 48.1546 63.6588 52.4735 59.2148C54.177 57.4612 56.1924 56.4043 58.6397 56.092C63.1985 55.5155 67.2054 53.7619 70.4924 50.471C73.2997 47.6364 74.9312 44.2494 75.2911 40.2378C75.603 36.6826 75.2191 33.2476 73.6596 30.0287C72.6519 27.9148 71.1883 26.1852 69.3168 24.768C69.1728 24.6479 68.9089 24.5758 68.9329 24.3596C68.9569 24.1434 69.2208 24.1194 69.3888 24.0473C71.4042 23.3027 73.4676 22.6541 75.627 22.7742C79.7779 23.0144 83.6408 24.1434 87.0239 26.6657C88.4395 27.7226 89.2553 29.2119 90.023 30.7493C91.1267 32.9353 91.6786 35.2894 91.8705 37.7156C91.9905 39.2289 91.5826 40.6702 91.1987 42.1115C90.5749 44.3935 89.5912 46.5314 88.5115 48.6213C86.7359 52.0084 84.5526 55.1552 82.3212 58.2539C81.6494 59.1908 80.8576 59.9835 80.0898 60.8242C80.0178 60.9203 79.9458 61.0164 79.8738 61.0885C79.5859 61.4248 79.6819 61.5929 80.0898 61.7371C82.1292 62.4817 84.0727 63.3945 85.9442 64.4995C95.4935 70.1686 101.372 78.408 103.123 89.4579C103.795 93.6616 103.723 97.9134 103.267 102.141C102.907 105.384 102.212 108.531 101.18 111.606C101.012 112.134 100.748 112.302 100.22 112.302C95.9734 112.254 91.7506 112.278 87.5277 112.278Z"
    fill="#F29708"/>
</svg>
