<svg width="202" height="143" viewBox="0 0 202 143" fill="none" xmlns="http://www.w3.org/2000/svg">
  <path
    d="M76.6826 3.72327C76.0588 4.01153 75.459 4.29979 74.8591 4.54C73.6115 5.02043 72.3878 5.62097 71.3321 6.38966C70.3244 7.1103 69.2207 7.63878 68.213 8.31138C66.5574 9.44039 65.1418 10.7616 63.5823 11.9867C61.9267 13.3078 60.4631 14.7732 59.0475 16.3346C57.7999 17.7038 56.5282 19.049 55.4725 20.5864C54.8007 21.5712 54.0809 22.5321 53.4091 23.517C53.1931 23.8293 52.9052 23.8293 52.5933 23.8293C49.0423 23.8293 45.4913 23.8293 41.9403 23.8293C41.1485 23.8293 41.1485 23.8293 41.1485 24.646C41.1485 30.6754 41.1485 36.7048 41.1485 42.7342C41.1485 58.3241 41.1245 73.8901 41.1245 89.48C41.1245 99.0886 41.1485 108.697 41.1485 118.306C41.1485 119.147 41.1485 119.147 41.9882 119.147C44.9154 119.147 47.8426 119.147 50.7458 119.147C50.9378 119.147 51.2017 119.075 51.2977 119.267C51.3936 119.459 51.2257 119.675 51.0817 119.843C50.8898 120.059 50.6738 120.276 50.4579 120.468C49.1862 121.693 48.2265 123.134 47.3867 124.648C46.7629 125.777 46.379 127.074 46.403 128.419C46.403 129.692 46.379 130.965 46.403 132.238C46.451 134.016 46.9789 135.649 47.9866 137.139C48.4185 137.787 48.9703 138.292 49.4982 138.868C49.6181 138.988 49.8581 139.084 49.7621 139.277C49.6661 139.445 49.4502 139.373 49.2822 139.373C49.1383 139.397 48.9703 139.373 48.8024 139.373C39.5649 139.373 30.3275 139.373 21.09 139.373C20.1543 139.373 20.1543 139.373 20.1543 138.46C20.1543 93.7799 20.1543 49.0999 20.1543 4.44392C20.1543 3.57914 20.1543 3.55512 21.0421 3.55512C39.349 3.55512 57.6799 3.55512 75.9868 3.55512C76.1788 3.55512 76.4427 3.45903 76.6826 3.72327Z"
    fill="#E1E5F4"/>
  <path
    d="M83.9288 119.267C84.2647 119.267 84.5286 119.267 84.7686 119.267C116.8 119.267 148.807 119.267 180.838 119.267C181.03 119.267 181.222 119.291 181.438 119.267C181.918 119.219 182.11 119.411 182.11 119.892C182.11 126.137 182.11 132.383 182.11 138.628C182.11 139.133 181.918 139.301 181.438 139.253C181.294 139.229 181.174 139.253 181.03 139.253C140.289 139.253 99.5725 139.229 58.8318 139.277C54.489 139.277 50.3141 136.154 49.7143 131.35C49.4024 128.732 50.0502 126.354 51.7537 124.312C54.1531 121.453 56.7443 118.763 59.2397 116C63.8704 110.884 68.5011 105.791 73.1318 100.699C76.9227 96.5188 80.7137 92.3631 84.5047 88.2074C85.2724 87.3666 86.0402 86.5259 86.784 85.6851C87.0719 85.3728 87.3359 85.2527 87.7677 85.4209C90.335 86.3577 92.7824 87.5348 94.7978 89.3604C96.0934 90.5134 96.9092 92.0748 97.605 93.6602C98.4928 95.678 98.7567 97.84 98.9966 100.026C99.0446 100.434 99.1406 100.843 99.1406 101.251C99.1646 102.476 98.7807 103.461 97.8689 104.398C93.2382 109.226 88.6795 114.127 84.0968 119.003C84.0728 119.051 84.0488 119.099 83.9288 119.267Z"
    fill="#E1E5F4"/>
  <path
    d="M137.41 40.4527C137.458 46.9625 135.874 53.2561 133.139 59.2855C130.212 65.7954 126.325 71.7046 122.006 77.3497C121.718 77.734 121.55 77.8061 121.262 77.3497C119.703 74.8274 117.543 72.8096 115.48 70.6957C113.488 68.6539 111.281 66.8763 108.858 65.363C108.066 64.8585 107.25 64.3781 106.41 63.9937C105.739 63.6815 105.739 63.6574 106.194 63.0329C108.618 59.6939 110.921 56.2828 112.721 52.5595C113.944 50.0132 115.048 47.4189 115.336 44.6084C115.984 38.627 115 33.0781 110.753 28.49C108.69 26.256 106.075 24.8147 103.171 23.9259C100.1 22.965 96.9571 22.6527 93.7659 22.8449C89.4951 23.1091 85.6562 24.7186 82.1772 27.1928C76.0349 31.5647 71.74 37.426 68.7409 44.2721C68.141 45.6173 67.6132 46.9865 67.1813 48.4038C67.0374 48.8602 66.8694 48.9563 66.4375 48.692C61.3269 45.5452 56.1924 42.4224 51.0818 39.2996C50.7459 39.0834 50.6259 38.8913 50.7699 38.4829C53.1452 30.82 56.8402 23.9019 62.4066 18.0406C69.3167 10.7621 77.7624 6.39018 87.5517 4.46846C91.3186 3.72379 95.1336 3.43553 98.9485 3.55564C105.523 3.74781 111.881 5.02095 117.783 8.02364C126.373 12.3956 132.395 19.0495 135.538 28.2257C136.522 31.1323 137.074 34.135 137.29 37.2098C137.362 38.2427 137.362 39.2756 137.41 40.4527Z"
    fill="#E1E5F4"/>
  <path
    d="M146.216 62.5515C147.103 61.4225 147.991 60.3175 148.855 59.1885C155.549 50.6849 162.267 42.1573 168.961 33.6537C169.225 33.3174 169.489 33.1973 169.897 33.1973C173.712 33.1973 177.503 33.2213 181.318 33.1973C181.894 33.1973 182.062 33.3894 182.062 33.9419C182.038 36.4882 182.038 39.0585 182.062 41.6048C182.062 42.0612 181.918 42.4455 181.654 42.8059C174.264 52.2463 166.874 61.6868 159.46 71.1272C159.172 71.4875 159.148 71.7278 159.412 72.0881C164.115 78.8862 168.817 85.6842 173.52 92.4823C176.231 96.3978 178.943 100.337 181.654 104.253C181.918 104.637 182.062 105.046 182.062 105.526C182.062 108.697 182.062 111.892 182.062 115.063C182.062 115.783 181.99 115.855 181.294 115.855C177.815 115.855 174.312 115.855 170.833 115.855C170.353 115.855 170.041 115.687 169.753 115.303C163.419 106.127 157.061 96.9744 150.702 87.7981C149.335 85.8284 147.967 83.8586 146.6 81.8888C146.48 81.6967 146.384 81.4805 146.144 81.3604C146.024 81.6006 146.072 81.8408 146.072 82.057C146.072 93.0108 146.072 103.941 146.072 114.894C146.072 115.855 146.072 115.855 145.136 115.855C140.217 115.855 135.299 115.855 130.38 115.855C129.468 115.855 129.444 115.831 129.444 114.942C129.444 101.37 129.444 87.7981 129.444 74.226C129.444 73.6975 129.588 73.2892 129.876 72.8568C132.707 68.629 135.227 64.2571 137.194 59.5729C138.85 55.6333 140.025 51.5497 140.505 47.2739C140.961 43.2383 140.985 39.2026 140.649 35.167C140.601 34.6866 140.577 34.1821 140.529 33.7017C140.505 33.3654 140.625 33.2213 140.961 33.2213C142.521 33.2213 144.056 33.2213 145.616 33.2213C145.928 33.2213 146.096 33.3654 146.072 33.6777C146.072 33.8939 146.072 34.1101 146.072 34.3263C146.072 43.4785 146.072 52.6307 146.072 61.7829C146.072 62.0231 146.072 62.2633 146.072 62.4795C146.12 62.5275 146.168 62.5275 146.216 62.5515Z"
    fill="#E1E5F4"/>
  <path
    d="M107.682 115.808C103.435 115.808 99.2124 115.808 94.9655 115.808C94.7736 115.808 94.5097 115.904 94.4377 115.712C94.3657 115.495 94.6056 115.375 94.7496 115.255C96.2132 114.078 97.5328 112.781 98.7325 111.364C100.052 109.802 100.988 107.977 101.876 106.127C102.332 105.142 102.499 104.181 102.499 103.124C102.547 100.29 102.451 97.4552 101.876 94.6927C101.324 92.0023 100.052 89.6722 98.2046 87.6304C95.7813 84.964 92.8062 83.1624 89.4231 82.0334C86.7118 81.1205 83.9046 80.496 81.0254 80.3519C78.4821 80.2318 76.1308 79.6793 74.0194 78.1659C68.9808 74.5627 68.3089 67.1881 72.6277 62.7441C74.3313 60.9905 76.3467 59.9336 78.794 59.6213C83.3528 59.0448 87.3597 57.2912 90.6467 54.0003C93.454 51.1657 95.0855 47.7787 95.4454 43.7671C95.7573 40.2119 95.3734 36.7769 93.8139 33.558C92.8061 31.4441 91.3426 29.7145 89.4711 28.2973C89.3271 28.1772 89.0632 28.1051 89.0872 27.8889C89.1112 27.6727 89.3751 27.6487 89.5431 27.5766C91.5585 26.8319 93.6219 26.1834 95.7813 26.3035C99.9322 26.5437 103.795 27.6727 107.178 30.195C108.594 31.2519 109.41 32.7412 110.177 34.2786C111.281 36.4646 111.833 38.8187 112.025 41.2449C112.145 42.7582 111.737 44.1995 111.353 45.6408C110.729 47.9228 109.745 50.0607 108.666 52.1506C106.89 55.5376 104.707 58.6845 102.475 61.7832C101.804 62.7201 101.012 63.5128 100.244 64.3535C100.172 64.4496 100.1 64.5457 100.028 64.6178C99.7402 64.9541 99.8362 65.1222 100.244 65.2664C102.284 66.011 104.227 66.9238 106.098 68.0288C115.648 73.6979 121.526 81.9373 123.278 92.9872C123.95 97.1909 123.878 101.443 123.422 105.671C123.062 108.913 122.366 112.06 121.334 115.135C121.166 115.663 120.902 115.832 120.375 115.832C116.128 115.784 111.905 115.808 107.682 115.808Z"
    fill="#E1E5F4"/>
</svg>
